<svg width="117" height="381" viewBox="0 0 117 381" fill="none" xmlns="http://www.w3.org/2000/svg">
<line x1="3.01952" y1="28.0063" x2="2.00053" y2="350.006" stroke="black" stroke-width="4"/>
<line x1="114.038" y1="28.0063" x2="113.019" y2="350.006" stroke="black" stroke-width="4"/>
<path d="M113.019 349C113.186 352.833 111.819 362.2 105.019 369C101.853 372.167 85.5195 378.5 57.5195 378.5" stroke="black" stroke-width="4"/>
<path d="M2.03255 349C1.86588 352.833 3.23255 362.2 10.0325 369C13.1991 372.167 29.5195 378.5 57.5195 378.5" stroke="black" stroke-width="4"/>
<path d="M114.019 31.5C114.186 27.6667 112.819 18.3 106.019 11.5C102.853 8.33333 86.5195 2 58.5195 2" stroke="black" stroke-width="4"/>
<path d="M3.03255 31.5C2.86588 27.6667 4.23255 18.3 11.0325 11.5C14.1991 8.33333 30.5195 2 58.5195 2" stroke="black" stroke-width="4"/>
<path d="M113.019 317C113.186 320.833 111.819 330.2 105.019 337C101.853 340.167 85.5195 346.5 57.5195 346.5" stroke="black" stroke-width="4"/>
<path d="M2.03255 317C1.86588 320.833 3.23255 330.2 10.0325 337C13.1991 340.167 29.5195 346.5 57.5195 346.5" stroke="black" stroke-width="4"/>
<rect x="13.0195" y="41" width="91" height="117" rx="4" fill="#DFF1FF" stroke="black" stroke-width="4"/>
<g clip-path="url(#clip0_2067_646)">
<path d="M80.0345 80.2517L84.0012 84.2184L47.9045 120.315L32.0379 104.448L36.0045 100.482L47.9045 112.382L80.0345 80.2517ZM80.0345 72.2334L47.9045 104.363L36.0045 92.4634L24.0195 104.448L47.9045 128.333L92.0195 84.2184L80.0345 72.2334Z" fill="#F5FBFF"/>
</g>
<path d="M15.5195 198.5V209C15.5195 210.105 16.415 211 17.5195 211H37.3648C38.0794 211 38.7396 210.619 39.0969 210L45.1591 199.5C45.5163 198.881 46.1766 198.5 46.8911 198.5H58.0195" stroke="black" stroke-width="4"/>
<path d="M100.02 198.5V209C100.02 210.105 99.1241 211 98.0195 211H78.1742C77.4597 211 76.7994 210.619 76.4422 210L70.38 199.5C70.0227 198.881 69.3625 198.5 68.648 198.5H57.5195" stroke="black" stroke-width="4"/>
<path d="M15.5195 270V259.5C15.5195 258.395 16.415 257.5 17.5195 257.5H37.3648C38.0794 257.5 38.7396 257.881 39.0969 258.5L45.1591 269C45.5163 269.619 46.1766 270 46.8911 270H58.0195" stroke="black" stroke-width="4"/>
<path d="M100.02 270V259.5C100.02 258.395 99.1241 257.5 98.0195 257.5H78.1742C77.4597 257.5 76.7994 257.881 76.4422 258.5L70.38 269C70.0227 269.619 69.3625 270 68.648 270H57.5195" stroke="black" stroke-width="4"/>
<path d="M15.5195 286V275.5C15.5195 274.395 16.415 273.5 17.5195 273.5H37.3648C38.0794 273.5 38.7396 273.881 39.0969 274.5L45.1591 285C45.5163 285.619 46.1766 286 46.8911 286H58.0195" stroke="black" stroke-width="4"/>
<path d="M100.02 286V275.5C100.02 274.395 99.1241 273.5 98.0195 273.5H78.1742C77.4597 273.5 76.7994 273.881 76.4422 274.5L70.38 285C70.0227 285.619 69.3625 286 68.648 286H57.5195" stroke="black" stroke-width="4"/>
<path d="M15.5195 303V292.5C15.5195 291.395 16.415 290.5 17.5195 290.5H37.3648C38.0794 290.5 38.7396 290.881 39.0969 291.5L45.1591 302C45.5163 302.619 46.1766 303 46.8911 303H58.0195" stroke="black" stroke-width="4"/>
<path d="M100.02 303V292.5C100.02 291.395 99.1241 290.5 98.0195 290.5H78.1742C77.4597 290.5 76.7994 290.881 76.4422 291.5L70.38 302C70.0227 302.619 69.3625 303 68.648 303H57.5195" stroke="black" stroke-width="4"/>
<path d="M15.5195 319V308.5C15.5195 307.395 16.415 306.5 17.5195 306.5H37.3648C38.0794 306.5 38.7396 306.881 39.0969 307.5L45.1591 318C45.5163 318.619 46.1766 319 46.8911 319H58.0195" stroke="black" stroke-width="4"/>
<path d="M100.02 319V308.5C100.02 307.395 99.1241 306.5 98.0195 306.5H78.1742C77.4597 306.5 76.7994 306.881 76.4422 307.5L70.38 318C70.0227 318.619 69.3625 319 68.648 319H57.5195" stroke="black" stroke-width="4"/>
<circle cx="58.0195" cy="233" r="21" stroke="black" stroke-width="4"/>
<circle cx="58.0195" cy="233" r="21" stroke="black" stroke-width="4"/>
<circle cx="58.0195" cy="233" r="21" stroke="black" stroke-width="4"/>
<circle cx="58.0195" cy="233" r="8" stroke="black" stroke-width="4"/>
<circle cx="58.0195" cy="233" r="8" stroke="black" stroke-width="4"/>
<circle cx="58.0195" cy="233" r="8" stroke="black" stroke-width="4"/>
<line x1="3.01953" y1="176" x2="114.02" y2="176" stroke="black" stroke-width="6"/>
<defs>
<clipPath id="clip0_2067_646">
<rect width="68" height="68" fill="white" transform="translate(24.0195 66)"/>
</clipPath>
</defs>
</svg>
