<svg width="133" height="307" viewBox="0 0 133 307" fill="none" xmlns="http://www.w3.org/2000/svg">
<path d="M69.7533 304.025C50.92 305.025 12.9533 301.325 11.7533 278.525C10.2533 250.025 -3.24671 105.025 4.25329 60.5248C11.7533 16.0248 10.2529 7.02477 33.7529 4.02477C52.5529 1.62477 52.2529 2.02554 67.2529 2.02477" stroke="black" stroke-width="4"/>
<path d="M62.9996 304.026C81.833 305.026 119.8 301.326 121 278.526C122.5 250.026 136 105.026 128.5 60.5259C121 16.0259 122.5 7.02591 99 4.02591C80.2 1.62591 85.2529 2.02554 65.5 2.02591" stroke="black" stroke-width="4"/>
<mask id="path-3-inside-1_2071_802" fill="white">
<rect x="20.7529" y="81.5254" width="96" height="66" rx="3"/>
</mask>
<rect x="20.7529" y="81.5254" width="96" height="66" rx="3" fill="#DFF1FF" stroke="black" stroke-width="8" mask="url(#path-3-inside-1_2071_802)"/>
<g clip-path="url(#clip0_2071_802)">
<path d="M82.0554 101.49L84.2721 103.706L64.1004 123.878L55.2338 115.011L57.4504 112.795L64.1004 119.445L82.0554 101.49ZM82.0554 97.0088L64.1004 114.964L57.4504 108.314L50.7529 115.011L64.1004 128.359L88.7529 103.706L82.0554 97.0088Z" fill="#F5FBFF"/>
</g>
<path d="M67.7529 208.525C71.2317 208.525 74.3327 209.178 76.5264 210.19C78.805 211.242 79.7529 212.494 79.7529 213.525C79.7529 214.557 78.805 215.809 76.5264 216.86C74.3327 217.873 71.2317 218.525 67.7529 218.525C64.2741 218.525 61.1732 217.873 58.9795 216.86C56.7009 215.809 55.7529 214.557 55.7529 213.525C55.7529 212.494 56.7009 211.242 58.9795 210.19C61.1732 209.178 64.2741 208.525 67.7529 208.525Z" stroke="black" stroke-width="2"/>
<path d="M67.7529 230.525C71.2317 230.525 74.3327 231.178 76.5264 232.19C78.805 233.242 79.7529 234.494 79.7529 235.525C79.7529 236.557 78.805 237.809 76.5264 238.86C74.3327 239.873 71.2317 240.525 67.7529 240.525C64.2741 240.525 61.1732 239.873 58.9795 238.86C56.7009 237.809 55.7529 236.557 55.7529 235.525C55.7529 234.494 56.7009 233.242 58.9795 232.19C61.1732 231.178 64.2741 230.525 67.7529 230.525Z" stroke="black" stroke-width="2"/>
<path d="M67.7529 252.525C71.2317 252.525 74.3327 253.178 76.5264 254.19C78.805 255.242 79.7529 256.494 79.7529 257.525C79.7529 258.557 78.805 259.809 76.5264 260.86C74.3327 261.873 71.2317 262.525 67.7529 262.525C64.2741 262.525 61.1732 261.873 58.9795 260.86C56.7009 259.809 55.7529 258.557 55.7529 257.525C55.7529 256.494 56.7009 255.242 58.9795 254.19C61.1732 253.178 64.2741 252.525 67.7529 252.525Z" stroke="black" stroke-width="2"/>
<path d="M67.7529 274.525C71.2317 274.525 74.3327 275.178 76.5264 276.19C78.805 277.242 79.7529 278.494 79.7529 279.525C79.7529 280.557 78.805 281.809 76.5264 282.86C74.3327 283.873 71.2317 284.525 67.7529 284.525C64.2741 284.525 61.1732 283.873 58.9795 282.86C56.7009 281.809 55.7529 280.557 55.7529 279.525C55.7529 278.494 56.7009 277.242 58.9795 276.19C61.1732 275.178 64.2741 274.525 67.7529 274.525Z" stroke="black" stroke-width="2"/>
<path d="M105.183 203.317C108.409 202.016 111.528 201.46 113.942 201.578C116.448 201.701 117.796 202.507 118.182 203.464C118.568 204.42 118.157 205.936 116.438 207.764C114.782 209.524 112.151 211.289 108.925 212.591C105.699 213.893 102.579 214.448 100.166 214.33C97.659 214.207 96.3116 213.401 95.9255 212.445C95.5395 211.488 95.9502 209.973 97.6697 208.145C99.3251 206.385 101.957 204.619 105.183 203.317Z" stroke="black" stroke-width="2"/>
<path d="M103.183 225.317C106.409 224.016 109.528 223.46 111.942 223.578C114.448 223.701 115.796 224.507 116.182 225.464C116.568 226.42 116.157 227.936 114.438 229.764C112.782 231.524 110.151 233.289 106.925 234.591C103.699 235.893 100.579 236.448 98.1657 236.33C95.659 236.207 94.3116 235.401 93.9255 234.445C93.5395 233.488 93.9502 231.973 95.6697 230.145C97.3251 228.385 99.9566 226.619 103.183 225.317Z" stroke="black" stroke-width="2"/>
<path d="M101.183 247.317C104.409 246.016 107.528 245.46 109.942 245.578C112.448 245.701 113.796 246.507 114.182 247.464C114.568 248.42 114.157 249.936 112.438 251.764C110.782 253.524 108.151 255.289 104.925 256.591C101.699 257.893 98.5788 258.448 96.1657 258.33C93.659 258.207 92.3116 257.401 91.9255 256.445C91.5395 255.488 91.9502 253.973 93.6697 252.145C95.3251 250.385 97.9566 248.619 101.183 247.317Z" stroke="black" stroke-width="2"/>
<path d="M100.183 268.317C103.409 267.016 106.528 266.46 108.942 266.578C111.448 266.701 112.796 267.507 113.182 268.464C113.568 269.42 113.157 270.936 111.438 272.764C109.782 274.524 107.151 276.289 103.925 277.591C100.699 278.893 97.5788 279.448 95.1657 279.33C92.659 279.207 91.3116 278.401 90.9255 277.445C90.5395 276.488 90.9502 274.973 92.6697 273.145C94.3251 271.385 96.9566 269.619 100.183 268.317Z" stroke="black" stroke-width="2"/>
<path d="M30.9248 203.317C27.6988 202.016 24.5789 201.46 22.1658 201.578C19.6591 201.701 18.3117 202.507 17.9256 203.464C17.5396 204.42 17.9503 205.936 19.6698 207.764C21.3252 209.524 23.9566 211.289 27.1827 212.591C30.4087 213.893 33.5286 214.448 35.9418 214.33C38.4484 214.207 39.7958 213.401 40.1819 212.445C40.5679 211.488 40.1573 209.973 38.4377 208.145C36.7823 206.385 34.1509 204.619 30.9248 203.317Z" stroke="black" stroke-width="2"/>
<path d="M32.9248 225.317C29.6988 224.016 26.5789 223.46 24.1658 223.578C21.6591 223.701 20.3117 224.507 19.9256 225.464C19.5396 226.42 19.9503 227.936 21.6698 229.764C23.3252 231.524 25.9566 233.289 29.1827 234.591C32.4087 235.893 35.5286 236.448 37.9418 236.33C40.4484 236.207 41.7958 235.401 42.1819 234.445C42.5679 233.488 42.1573 231.973 40.4377 230.145C38.7823 228.385 36.1509 226.619 32.9248 225.317Z" stroke="black" stroke-width="2"/>
<path d="M34.9248 247.317C31.6988 246.016 28.5789 245.46 26.1658 245.578C23.6591 245.701 22.3117 246.507 21.9256 247.464C21.5396 248.42 21.9503 249.936 23.6698 251.764C25.3252 253.524 27.9566 255.289 31.1827 256.591C34.4087 257.893 37.5286 258.448 39.9418 258.33C42.4484 258.207 43.7958 257.401 44.1819 256.445C44.5679 255.488 44.1573 253.973 42.4377 252.145C40.7823 250.385 38.1509 248.619 34.9248 247.317Z" stroke="black" stroke-width="2"/>
<path d="M35.9248 268.317C32.6988 267.016 29.5789 266.46 27.1658 266.578C24.6591 266.701 23.3117 267.507 22.9256 268.464C22.5396 269.42 22.9503 270.936 24.6698 272.764C26.3252 274.524 28.9566 276.289 32.1827 277.591C35.4087 278.893 38.5286 279.448 40.9418 279.33C43.4484 279.207 44.7958 278.401 45.1819 277.445C45.5679 276.488 45.1573 274.973 43.4377 273.145C41.7823 271.385 39.1509 269.619 35.9248 268.317Z" stroke="black" stroke-width="2"/>
<path d="M90.9053 165.96L89.8355 166.686C76.2996 175.88 58.4396 175.55 45.2527 165.862C44.3914 165.229 44.7798 163.866 45.8454 163.783L56.6806 162.933C64.3837 162.329 72.1222 162.329 79.8252 162.933L90.321 163.756C91.4592 163.845 91.8497 165.318 90.9053 165.96Z" stroke="black" stroke-width="2"/>
<ellipse cx="68.7529" cy="44.5254" rx="3" ry="2" fill="black"/>
<ellipse cx="68.7529" cy="36.5254" rx="3" ry="2" fill="black"/>
<ellipse cx="68.7529" cy="28.5254" rx="3" ry="2" fill="black"/>
<ellipse cx="68.7529" cy="20.5254" rx="3" ry="2" fill="black"/>
<ellipse cx="68.7529" cy="12.5254" rx="3" ry="2" fill="black"/>
<path d="M74.2529 7.02539V47.0022C74.2529 47.6165 73.8686 48.1651 73.2913 48.3751C70.3596 49.4411 67.1462 49.4411 64.2145 48.3751C63.6372 48.1651 63.2529 47.6165 63.2529 47.0022V7.02539" stroke="black" stroke-width="2" stroke-linecap="round"/>
<defs>
<clipPath id="clip0_2071_802">
<rect width="38" height="38" fill="white" transform="translate(50.7529 93.5254)"/>
</clipPath>
</defs>
</svg>
